<?xml version="1.0" encoding="utf-8"?>
<!-- Generator: Adobe Illustrator 19.2.1, SVG Export Plug-In . SVG Version: 6.00 Build 0)  -->
<svg version="1.1" id="layer" xmlns="http://www.w3.org/2000/svg" xmlns:xlink="http://www.w3.org/1999/xlink" x="0px" y="0px"
	 viewBox="0 0 652 652" style="enable-background:new 0 0 652 652;" xml:space="preserve">
<g id="Layer_2">
	<g id="Layer_2-2">
		<path d="M441.1,166.6c-35.2-34.8-91.7-35.2-127.3-0.7c-34.2,35.6-33.7,91.9,1,126.9c26.7,26.7,67.4,33.7,101.5,17.6L333,226.8
			h83.5l41.8,41.9C475.1,234.5,468.1,193.4,441.1,166.6z M674,137.2c0,21.8-13.3,40-32.9,54.8l-45.6,34.8h78.2v44H526.2
			c-5.1,15.6-12.5,30.4-22.1,43.8l61.3,61.3l-82.5,1l-20.7-20.9c-59.7,44.7-143.2,38.5-195.6-14.6c-18.1-17.9-31.3-40.1-38.5-64.5v2
			c0,63.5-64.7,100.3-130.8,100.3c-50,0.5-97.6-21.1-130.1-59.1l49.2-44c20.1,25.4,50.6,40.4,83,40.8c38.5,0,60.5-15,60.5-35.7
			c0-54.4-181.4,6.3-181.4-116.8c-0.1-55.3,57.2-90.9,122.8-90.9c54.8,0,96.1,19.7,121.9,49.7l-48.7,43.6
			c-17.9-23.5-46-37-75.5-36.2c-41.2,0-52.5,19-52.5,31.7c0,47.8,145.1,4.5,175.8,83.3c-3-46.2,14.3-91.3,47.4-123.7
			c62.3-62.3,158.6-64.3,219.5-3.3c27.6,27.2,43.6,64.1,44.4,102.9L614,158c9.5-7.4,12.7-14.2,12.7-21.3c0-10.5-11.4-20.6-26.8-20.6
			s-28,8.1-37,23.9l-41.2-19.7c20.6-33.6,46.4-46.5,80.1-46.5c44.4,0,72.3,29.3,72.3,63.5L674,137.2z M82.6,476.2l-12.4-21.6
			l0.8-0.4c5.7-2.9,9.1-9,8.5-15.4c0.6-5.7-2.2-11.2-7-14.2c-3.8-1.8-8.1-2.5-12.2-2.1H46.6c-1.6,0-1.7,0-1.7,1.7v53.2
			c0,1.8,0,2,1.7,2h7.6c1.5,0,1.7,0,1.7-1.7V456h4.4l11.7,23.5c0.5,0.9,0.8,1.1,1.1,1.1h1l7.2-2.3c1,0,1.3-0.6,1.3-1
			C82.8,476.9,82.7,476.5,82.6,476.2z M56.1,430.8h3.2c6.7,0,8.9,1.9,8.9,7.8s-2.5,8.6-9.9,8.6h-2.3V430.8z M337.7,454.8
			c-2.5-3.5-5.8-6.3-9.8-7.9c-7.3-3.7-7.6-3.8-8.7-4.6c-1.9-1.1-3.1-3-3.2-5.2c0-3.7,2.9-6.3,7.6-6.3c2.9,0.1,5.7,0.8,8.3,2.2
			c3,1.5,3,1.5,3.2,1.5c0.3-0.1,0.6-0.3,0.8-0.6l3-6.3v-0.6c0-2.2-9.3-5.2-15.9-5.2c-11.1,0-18.1,6.3-18.1,16
			c0,7.4,3,11.1,12.7,16.1l1.5,0.8c3,1.1,5.7,2.8,7.9,4.9c1.2,1.4,1.8,3.2,1.7,5.1c0.3,3.5-2.2,6.6-5.7,6.9c-0.6,0.1-1.2,0-1.8-0.1
			c-4.5-0.3-8.9-1.7-12.7-4.1h-0.8c-0.3,0-0.6,0-0.8,0.8l-2.7,7.1c0,0.3,0,0.6,0,0.9c0,1.9,10.6,4.9,17.3,4.9
			c9.2,0.7,17.3-6.1,18-15.4c0.1-0.6,0.1-1.3,0-1.9C339.9,460.7,339.2,457.6,337.7,454.8z M405.9,425.1l-7.2-1.5h-1
			c-0.4,0-0.6,0-1.1,1.1l-6.3,13.6c-1.7,3-3.1,6.2-4.3,9.5c-1-3.1-2.2-6.2-3.5-9.1l-6.3-14.1c-0.5-1.1-0.6-1.3-1.3-1.3h-0.8
			l-8.6,1.4c-1.1,0-1.6,0.5-1.6,1.1s0,0.3,0.4,1.1l15.4,29.1l1,1.8v21.8c0,1.6,0,1.7,1.7,1.7h7.9c1.5,0,1.7,0,1.7-1.7v-21.6l1-1.8
			l14.3-28.6c0.2-0.3,0.4-0.7,0.4-1.1C407.4,425.8,406.9,425.4,405.9,425.1z M465.4,454.8c-2.4-3.5-5.7-6.2-9.5-7.9
			c-7.3-3.7-7.6-3.8-8.7-4.6c-1.9-1.1-3.1-3-3.2-5.2c0-3.7,2.9-6.3,7.6-6.3c2.9,0.1,5.7,0.8,8.3,2.2c3,1.5,3,1.5,3.2,1.5
			c0.3-0.1,0.6-0.3,0.8-0.6l3-6.3v-0.6c0-2.2-9.3-5.2-15.9-5.2c-11.1,0-18.1,6.3-18.1,16c0,7.4,3,11.1,12.7,16.1l1.5,0.8
			c3,1.1,5.7,2.8,7.9,4.9c1.2,1.4,1.8,3.2,1.7,5.1c0.4,3.5-2,6.7-5.5,7.1c-0.5,0.1-1.1,0.1-1.6,0c-4.5-0.3-8.9-1.7-12.7-4.1h-0.8
			c-0.3,0-0.6,0.3-0.8,0.8l-2.7,7.1c0,0.3,0,0.6,0,0.9c0,1.9,10.6,4.9,17.3,4.9c9.2,0.7,17.3-6.1,18-15.4c0.1-0.6,0.1-1.3,0-1.9
			C468,460.8,467.1,457.6,465.4,454.8z M232.1,455.6l-1.5-30.1c0-1.4,0-1.6-1.7-1.6h-7.8c-1.3,0-1.4,0-1.8,1.3l-7,20.9
			c-1.1,3.1-2,6.3-2.8,9.5c-0.8-3.6-1.7-7.9-2.2-9.4l-6.3-21c-0.4-1.3-0.6-1.3-1.8-1.3h-8.6c-1.4,0-1.6,0-1.7,1.6l-1.3,30.1
			l-1.1,23.4c0,1.4,0.4,1.7,1.6,1.7h6.7c1.5,0,1.7,0,1.7-1.6l0.6-23.5v-17.8c0.9,4.3,2.6,11,3,12.7l1.4,4.9l3.2,11.4
			c0.3,1.3,0.5,1.4,1.8,1.4h5.1c1.4,0,1.5,0,1.9-1.3l3.6-11.3l1.8-5.7c0.8-2.7,1.8-6.3,3-12v17.7l0.4,23.5c0,1.4,0,1.6,1.7,1.6h7.5
			c1.3,0,1.7-0.3,1.7-1.1V479L232.1,455.6z M670.5,479l-1.1-23.4l-1.5-30.1c0-1.4,0-1.6-1.7-1.6h-7.8c-1.3,0-1.4,0-1.8,1.3l-7,20.9
			c-1.1,3.1-2,6.3-2.8,9.5c-0.8-3.6-1.7-7.9-2.2-9.4l-6.3-21c-0.4-1.3-0.6-1.3-1.8-1.3H628c-1.4,0-1.6,0-1.7,1.6l-1.3,30.1
			l-1.1,23.4c0,1.4,0.4,1.7,1.6,1.7h6.7c1.5,0,1.7,0,1.7-1.6l0.6-23.5v-17.7c0.9,4.3,2.6,11,3,12.7l1.4,4.9l3.2,11.2
			c0.3,1.3,0.5,1.4,1.8,1.4h5.1c1.4,0,1.5,0,1.9-1.3l3.6-11.3l1.8-5.7c0.8-2.7,1.8-6.3,3-12v17.7l0.4,23.5c0,1.4,0,1.6,1.7,1.6h7.5
			c1.3,0,1.7-0.3,1.7-1.1L670.5,479z M530.8,423.9h-34.3c-1.6,0-1.7,0-1.7,1.7v6.3c0,1.5,0,1.6,1.7,1.6H507v45.2
			c0,1.6,0,1.7,1.7,1.7h8.1c1.6,0,1.7,0,1.7-1.7v-45.1h10.2c1.3,0,1.6,0,1.8-1.4l1.7-6.3c0-0.3,0-0.7,0-1
			C532.5,424.1,532,423.9,530.8,423.9L530.8,423.9z M-2.3,424.3c-2.8-0.5-5.7-0.7-8.6-0.5h-13c-1.5,0-1.7,0-1.7,1.7v53.4
			c0,1.5,0,1.7,1.7,1.7h13c4.6,0.6,9.3-0.2,13.5-2.1c6.3-3.3,10-10.9,10.5-23.1v-3.2C13.1,435.1,8.2,426.3-2.3,424.3z M1.1,455.5
			c0,7.6-1.4,11.7-3.9,14c-2.5,1.8-5.6,2.6-8.6,2.2h-2.9v-38.8h2.9c2.6-0.3,5.2,0.2,7.4,1.6c3.7,2.5,5.2,7.6,5.2,18.3
			C1.2,453.7,1.2,454.6,1.1,455.5L1.1,455.5z M150.2,422.4h-7.5c-1.5,0-1.7,0-1.7,1.7v36.4c0,8.2-2.7,11.5-9.2,11.5
			c-2.6,0.2-5.2-0.9-6.8-2.9c-1.3-1.7-1.6-3.3-1.6-8.8v-36.1c0-1.5,0-1.7-1.7-1.7h-7.9c-1.6,0-1.7,0-1.7,1.7v35.9
			c-0.4,4.7,0.6,9.3,2.8,13.5c3.7,5.2,9.9,7.9,16.2,7.2c6.1,0.4,12.1-1.9,16.4-6.3c3.6-4,5.2-9.3,4.6-14.6v-35.7
			C151.9,422.4,151.8,422.4,150.2,422.4z M591,423.1h-27.7c-1.6,0-1.7,0-1.7,1.7v53.4c0,1.6,0,1.7,1.7,1.7h27c1.6,0,1.7,0,1.7-1.7
			v-5.6c0-1.5,0-1.7-1.7-1.7h-17.4v-16.1h13.8c1.5,0,1.7,0,1.7-1.7v-5.3c0-1.5,0-1.7-1.7-1.7h-13.8v-14h16.2c1.1,0,1.6-0.3,1.8-1.4
			l1.6-5.6c0-0.4,0-0.7,0-1.1C592.6,423.4,592.2,423.1,591,423.1z M161.3,571.5v-16.4c0-0.6,0-1,1.1-1c2.9,0,5.8,0,5.9,3.4v14h10
			v-11.9c0-7.1-6-6.3-6-7.2s6.7-1.8,6.7-9.5c0.3-5.9-4.3-10.9-10.2-11.1c-0.5,0-1,0-1.5,0h-16.1v39.7H161.3 M116,551.5
			c0,16.6,9.5,21.1,15.7,21.1c6.2,0,15.7-4.4,15.7-21.1s-9.3-20.6-15.7-20.6C125.3,530.9,116,534.9,116,551.5 M51.3,551.5
			c0,16.6,9.5,21.1,15.8,21.1c6.3,0,15.7-4.4,15.7-21.1s-9.3-20.6-15.7-20.6S51.3,534.9,51.3,551.5 M21.9,559.2
			c-0.5,7.3,5,13.7,12.4,14.2s13.7-5,14.2-12.4c0-0.6,0-1.2,0-1.8c0-14.5-18.5-10.8-18.5-19.5c0-2.9,2.3-5.2,5.1-5.3c0,0,0,0,0.1,0
			c4.3,0.2,7.8,3.6,8.1,7.9h4.4c-0.2-6.9-5.9-12.3-12.7-12.1S22.8,536.1,23,543c0,14.3,18,12.2,18,20.2c0,3.1-2.5,5.6-5.6,5.6
			c0,0,0,0-0.1,0c-5.1-0.3-9-4.7-8.8-9.8h-4.6 M179.6,534.3c0,2.1,1.7,3.8,3.8,3.8c2.1,0,3.8-1.7,3.8-3.8c0-2.1-1.7-3.8-3.8-3.8h0
			C181.3,530.5,179.6,532.2,179.6,534.3 M183.4,537.5c-1.8,0-3.2-1.4-3.2-3.1c0-1.8,1.4-3.2,3.1-3.2c1.8,0,3.2,1.4,3.2,3.1
			c0,0,0,0,0,0.1C186.5,536.1,185.2,537.5,183.4,537.5C183.4,537.5,183.4,537.5,183.4,537.5 M181.9,536.6h0.7v-1.8h0.4l1.2,1.8h0.7
			l-1.3-1.9c0.7,0,1.2-0.5,1.2-1.2l0,0c0-0.9-0.5-1.3-1.5-1.3h-1.7v4.4 M161,549.3v-12.7c0-1.5,0.3-1.5,2.7-1.5s4.4,1.9,4.4,7.6
			s-2,7.8-4.4,7.8s-2.7,0-2.7-1.5 M126.6,551.2c0-14.7,1.6-17,4.8-17c3.2,0,4.7,2.4,4.7,17s-1.3,17.6-4.7,17.6
			C128,568.7,126.5,566.4,126.6,551.2 M62.4,551.4c0-14.7,1.6-17,4.8-17c3.2,0,4.7,2.4,4.7,17c0,14.6-1.3,17.6-4.7,17.6
			S62.4,566.6,62.4,551.4 M86.9,571.5h4.6v-23.4c0-0.5,0-0.5,0.3,0c0.3,0.5,12.7,23.5,12.7,23.5h7.9v-39.7h-4.6v21
			c0,0.4-0.1,0.4-0.4,0l-12.7-21h-8v39.7 M2.5,571.5v-20.1c-5.6-1.2-9.2-6.7-8.1-12.3c0.7-3.6,3.3-6.5,6.7-7.7
			c1.1-0.4,2.3-0.6,3.4-0.6c5.7,0,10.4,4.6,10.5,10.4c0,5-3.5,9.3-8.4,10.3v20.1H2.5 M-15.6,552v-20.2h4.2v20.2
			c5.6,1.2,9.3,6.7,8.1,12.3c-1.2,5.6-6.7,9.3-12.3,8.1s-9.3-6.7-8.1-12.3C-22.9,556.1-19.7,552.9-15.6,552 M182.6,534.4v-1.3h0.9
			c0.4,0,1,0,1,0.6c0,0.6-0.6,0.7-1.1,0.7H182.6 M236.3,569.6v-3.2v-9.6v-24.4v-2.7h13.1c6-0.1,11,4.8,11,10.8c0,0.2,0,0.4,0,0.6
			c0.3,4.8-2.1,9.5-6.3,11.9l10.2,16.6H255l-7.7-13.8c-0.6-1.1-1.6-1.5-3.4-1.5v15.5L236.3,569.6z M243.9,547.7c0,0,8.5,0.7,8.5-6.3
			c0-7-8.5-5.6-8.5-5.6V547.7z M205.2,533v-2.7c5.5-1.1,11.1-0.6,16.3,1.5c5.1,2.5,8.5,8.1,8.5,18c0,12.1-5.3,16.9-10.7,19
			c-4.7,1-9.5,1.3-14.3,1.1V567C205.1,560.6,205.2,538.1,205.2,533z M221.1,549.8c0-12-3.6-13.5-8-14.1v24.6c0.1,1,0.1,2.1,0,3.1
			C216.7,563.5,221.1,562,221.1,549.8z M290.9,529.6H284v28.5c0,3-2.5,5.5-5.5,5.5c-3,0-5.5-2.5-5.5-5.5v-23.5v-5h-7v26
			c-0.6,4.7,1.5,9.3,5.3,12c4.5,2.6,10.1,2.6,14.7,0c3.7-2.8,5.7-7.4,5-12C291.4,548.1,290.9,529.6,290.9,529.6z M555.2,529.6
			c7,0,9.6,5.4,9.6,11.1c0,5.7-7.4,10-7.4,10c0.2,0.6,0.4,1.2,0.7,1.7c1.8,3.7,3.9,7.4,5.8,11c0.4,0.8,1,1.6,1.3,2.5
			c0.4,0.9,1,2.7-0.6,3.4c-1.5,0.5-3.1-0.1-3.9-1.4c-1.1-2.3-2.4-4.6-3.5-7c-1.1-2.3-2.3-4.6-3.7-7.4c-0.8-1.6-2.5-2.4-4.3-2.2
			c0,2.3-0.4,13.7-0.4,15.5c0,1.8-0.7,2.7-2.4,2.7c-1.7-0.1-2.6-1-2.5-3c0-3.9,0.5-33.8,0.4-37C547.5,529.5,554,529.6,555.2,529.6z
			 M549.3,546.4c0,0,10.4,2.5,10.4-6.3c0-6.3-10.4-5.9-10.4-5.9V546.4z M661.8,529.6c7,0,9.6,5.4,9.6,11.1c0,5.7-7.2,10.1-7.2,10.1
			c0.2,0.6,0.4,1.2,0.7,1.7c1.8,3.7,3.9,7.4,5.8,11c0.4,0.8,1,1.6,1.3,2.5c0.4,0.9,1,2.7-0.6,3.4c-1.5,0.5-3.1-0.1-3.9-1.4
			c-1.1-2.3-2.4-4.6-3.5-7s-2.3-4.6-3.7-7.4c-0.8-1.6-2.5-2.4-4.3-2.2c0,2.3-0.4,13.7-0.4,15.5c0,1.8-0.7,2.7-2.4,2.7
			c-1.7-0.1-2.6-1-2.5-3c0-3.9,0.5-33.8,0.4-37C654,529.5,660.6,529.6,661.8,529.6L661.8,529.6z M655.9,546.4c0,0,10.4,2.5,10.4-6.3
			c0-6.3-10.4-5.9-10.4-5.9V546.4z M400.1,535c-1.2-2.2-3.2-3.8-5.5-4.5c-1.2-0.5-2.5-0.7-3.8-0.8c-1.3,0.1-2.7,0.4-3.9,0.8
			c-2.4,0.7-4.3,2.3-5.5,4.5c-2.5,5.3-3.6,11.1-3.3,16.9c0.1,2.1,0.4,4.3,0.9,6.3c0.5,3.4,2,6.5,4.4,8.9c2.1,1.6,4.7,2.5,7.3,2.5
			c2.6,0,5.2-0.9,7.3-2.5c2.4-2.4,4-5.5,4.4-8.9c0.5-2.1,0.8-4.2,0.9-6.3C403.7,546.1,402.6,540.3,400.1,535z M399.1,554
			c-0.2,2.5-0.7,4.9-1.5,7.3c-2,4.2-3.6,4.7-6.9,4.7c-3.3,0-4.8-0.5-6.9-4.7c-0.8-2.4-1.3-4.8-1.5-7.3c-0.6-5-0.1-10,1.5-14.7
			c0.7-3,3.2-5.3,6.3-5.6h0.4c3.1,0.3,5.6,2.6,6.3,5.6c1.6,4.7,2.2,9.6,1.6,14.5L399.1,554z M641.3,535c-1.2-2.2-3.2-3.8-5.5-4.5
			c-1.2-0.5-2.5-0.7-3.8-0.8c-1.3,0.1-2.7,0.4-3.9,0.8c-2.4,0.7-4.3,2.3-5.5,4.5c-2.5,5.3-3.6,11.1-3.3,16.9
			c0.1,2.1,0.4,4.3,0.9,6.3c0.5,3.4,2,6.5,4.4,8.9c2.1,1.6,4.7,2.5,7.3,2.5c2.6,0,5.2-0.9,7.3-2.5c2.4-2.4,4-5.5,4.4-8.9
			c0.5-2.1,0.8-4.2,0.9-6.3C644.8,546.1,643.7,540.3,641.3,535z M640.2,554c-0.2,2.5-0.7,4.9-1.5,7.3c-2,4.2-3.6,4.7-6.9,4.7
			c-3.3,0-4.8-0.5-6.9-4.7c-0.8-2.4-1.3-4.8-1.5-7.3c-0.6-5-0.1-10,1.5-14.7c0.7-3,3.2-5.3,6.3-5.6h0.4c3.1,0.3,5.6,2.6,6.3,5.6
			c1.6,4.7,2.2,9.6,1.6,14.5L640.2,554z M525.2,569.6c5.8,0.3,10.8-4.3,11-10.1v-27.1c0-1.9-0.8-2.9-2.4-2.9c-1.6,0-2.4,1.1-2.4,2.9
			v21.8c0,4,0,11.4-6.3,11.4h-1.3c-6.3,0-6.3-7.4-6.3-11.4v-21.8c0-1.7-0.7-2.9-2.4-2.9c-1.7,0.1-2,0.7-2,2.9v27.1
			c0.2,5.7,5,10.3,10.7,10.1c0.1,0,0.2,0,0.3,0H525.2z M577.4,557.2c0,0-2,7.1-2.9,9.8c-0.5,1.3-1.6,3.2-3.4,2.5
			c-1.3-0.5-2-2-1.6-3.3c3.5-10.1,10.4-36.6,10.4-36.6h5.6c0,0,3.6,11.2,5,16.1l4.6,15.9c0.4,1.5,0.9,3,1.5,4.4
			c0.6,1.5,0.5,3.1-0.8,3.5c-1.6,0.4-3.3-0.5-3.7-2.1c0,0,0,0,0,0c-0.6-2.4-3.2-10.2-3.2-10.2H577.4z M582.8,536.1l-4.4,16.4h9.6
			C587.9,552.6,583.4,536.6,582.8,536.1z M486.2,549.6c0,13.6,5.5,15.9,8.4,15.9c5,0,5.3-2.6,5.5-3.8c0.2-1.2,0-6.9,0-7.6
			c-2.9,0-6.7,0-6.3-2.3c0.1-1.2,1.2-2.1,2.4-2c0,0,0.1,0,0.1,0c2.7-0.2,5.4,0,8,0.5c0.2,2,0.2,4,0,6v6.3c0,0-0.8,5-3.3,5.8
			c-2.4,0.8-5,1.1-7.5,1c-4.6-0.4-12.1-1.1-12.1-20.1s8.2-19,11.6-19.6c3-0.3,6.1,0,8.9,1.1c2.2,1.1,3,2.4,2.2,4.1
			c-0.9,1.6-3,1-4.4,0.4C499.5,535.2,486.2,529,486.2,549.6z M369.3,564.8c-3,1.8-6.9,0.9-8.7-2.1c-0.4-0.6-0.7-1.3-0.8-2.1
			c-0.4-1.7-0.6-3.4-0.6-5.1v-11.8c0-1.7,0.3-3.4,0.6-5.1c0.4-3.3,3.4-5.6,6.6-5.2c1,0.1,1.9,0.5,2.7,1.1c0.8,0.4,3.9,3.4,5.1,1.6
			c1.3-1.8-3.4-5.4-4.8-5.8c-3-1-6.3-0.7-9,0.8c-3,1.8-5,4.9-5.5,8.4c-0.5,3.2-0.8,6.5-0.8,9.8v0.6c-0.1,3.3,0.1,6.6,0.6,9.8
			c0.4,3.6,2.6,6.8,5.7,8.6c2.8,1.5,6,1.8,9,0.8c1.4-0.4,6.3-4,4.8-5.8S370.1,564.4,369.3,564.8z M617.8,530.3h-22.7
			c0,0-0.4,3.9,0,4.2c0.4,0.3,7,0,8.9,0c0.3,0,0.5,0.2,0.5,0.5c0,0,0,0,0,0.1v31.7c0,1.3,1,2.3,2.3,2.3c1.3,0,2.3-1,2.3-2.3V535
			c0-0.3,0.2-0.5,0.4-0.6c0,0,0,0,0.1,0h8.9C618.5,533,618.3,531.6,617.8,530.3z M328.6,529.6h-7.3c0,0-5.6,19-6.3,20.4
			c-0.5-1.3-6.3-20.4-6.3-20.4h-6.9c0,0-2,36-2,40h7.4c0,0,0-23.2,0.4-25.4c0.5,0.4,3.8,14.7,4.5,18.2h6.3c0.7-3.6,4-17.8,4.5-18.2
			c0.4,2.3,0.4,25.4,0.4,25.4h7.4C330.6,565.7,328.6,529.6,328.6,529.6z M433,560.5v-28c0-1.8-0.9-2.9-2.6-2.9c-1.7,0-2.3,1-2.2,2.9
			c0.1,1.9,0,4.6,0,7c0,7.8,0.4,17.8,0,20.4c-0.6-0.6-10.9-23.2-13.3-28.4c-1-1.8-3.2-2.5-5.1-1.7c-0.6,0.4-1,1-1.1,1.6v35.2
			c0,1.8,0.9,2.9,2.6,2.9c1.7,0,2.3-1,2.2-2.9c-0.1-1.9,0-4.6,0-7c0-7.8-0.4-17.8,0-20.4c0.6,0.6,10.9,23.2,13.3,28.4
			c1,1.8,3.2,2.5,5.1,1.7c0.6-0.4,1-1,1.1-1.6C433.1,565.3,433,562.9,433,560.5z M475.3,565.8h-3.8v-2.9v-24.7v-4.4h3.4
			c1.1,0,1.9-0.4,1.9-1.8c0.1-1-0.5-1.9-1.5-2c-0.1,0-0.1,0-0.2,0h-30c-2.4,0-2.9,0.7-2.9,3.1c0.1,2.4,0,24.4,0,34.2
			c0,1.3,1,2.4,2.3,2.5c0.1,0,0.2,0,0.3,0c1.6,0,2.7-0.6,2.7-2.1v-16.1h7.9c1.9,0,3.7,0.4,3.7-1.9c0-2.3-2.3-2.3-3.7-2.3h-7.8v-13.5
			h19v31.9h-4.5c-1,0-1.8,0.8-1.7,1.8c0,0.1,0,0.1,0,0.2c0,0.7,0.4,1.3,1.1,1.6h13.2c0.9,0.1,1.8-0.6,1.9-1.5c0-0.1,0-0.2,0-0.3
			C476.7,566.6,476.1,565.9,475.3,565.8z"/>
	</g>
</g>
</svg>
